<svg xmlns="http://www.w3.org/2000/svg" height="800" width="1200" viewBox="-26.296875 -7.39625 227.90625 44.3775"><path d="M30.1112 11.8325a.3665.3665 0 00-.3687.004l-7.0438 4.19c-.1737.0987-.2562.1962-.2562.4975v12.17c0 .195.1575.3525.3513.3525h7.1512a.3532.3532 0 00.3538-.3526v-16.54a.3709.3709 0 00-.1875-.3212" fill="#f9ae00"/><path d="M129.61 19.1725s6.6825-1.915 6.6825-9.0087C136.2925.54 127.0575.54 123.2288.54h-1.4538c-.1938 0-.3525.16-.3525.3537v6.2188c0 .1938.1588.3525.3525.3525h2.3013c1.0862 0 4.2762.1862 4.2762 3.4175 0 3.2325-3.3225 3.4225-4.2363 3.4225h-2.3412c-.1938 0-.3525.1588-.3525.3538v5.4387c0 .3513.1175.49.1588.5513l5.5562 8.2362a.3644.3644 0 00.305.1612h8.2288a.3712.3712 0 00.3262-.195.3679.3679 0 00-.0238-.38l-6.3637-9.2987m-10.7063 9.5213c0 .1937-.1574.3525-.3512.3525h-7.1487c-.195 0-.3538-.1588-.3538-.3525v-27.8c0-.195.1588-.3538.3538-.3538h7.1487c.1938 0 .3513.1588.3513.3538v27.8M30.2975.6163a.3678.3678 0 00-.5587-.314L15.15 9.1823.5587.3022a.368.368 0 00-.3712-.006.3704.3704 0 00-.1875.32v28.0774c0 .1938.1575.3526.3538.3526h7.15a.3537.3537 0 00.3525-.3525v-15.44L14.795 17.42c.0725.0438.2275.13.355.13.125 0 .2813-.0863.3538-.13 0 0 14.5075-8.6687 14.6137-8.7338.1575-.0924.1812-.1924.1812-.4374L30.2975.6163m35.145 21.505H50.525V7.4636h14.7137a.3532.3532 0 00.3538-.3524V.8938a.3545.3545 0 00-.3538-.355h-22.22c-.195 0-.3525.16-.3525.355v27.8a.353.353 0 00.3525.3525h22.4238a.3532.3532 0 00.3538-.3525V22.475a.3534.3534 0 00-.3538-.3538m-12.0875-4.215a.352.352 0 01-.3525-.3524v-5.5213a.3518.3518 0 01.3525-.3513h10.4525c.195 0 .355.1575.355.3513v5.5213c0 .195-.16.3525-.355.3525H53.355M76.2488 7.465a.3529.3529 0 01-.3526-.3525V.8937c0-.1937.1576-.3537.3526-.3537h24.8937c.1925 0 .3525.16.3525.3538v6.2187c0 .1938-.16.3525-.3525.3525H76.2488m16.375 21.2288c0 .1937-.1588.3525-.3538.3525h-7.1487c-.195 0-.3538-.1588-.3538-.3525v-18.36c0-.1938.1588-.3525.3538-.3525H92.27c.195 0 .3538.1587.3538.3525v18.36m67.94-6.6963c3.4212 0 6.3325-2.3262 7.0762-5.6575a.3714.3714 0 01.36-.2875h6.945a.3665.3665 0 01.3675.3675c0 2.965-3.345 13.165-14.7487 13.165-11.4025 0-14.7488-10.2-14.7488-13.165a.3665.3665 0 01.3675-.3675h6.9437c.1725 0 .3213.12.3588.2875.7475 3.3313 3.6575 5.6575 7.0787 5.6575m0-14.41c3.4213 0 6.3325 2.325 7.0763 5.6563a.3714.3714 0 00.36.2875h6.945a.3665.3665 0 00.3675-.3675C175.3125 10.2 171.9675 0 160.5637 0c-11.4025 0-14.7487 10.2-14.7487 13.1638 0 .2037.1638.3675.3675.3675h6.9437c.1725 0 .3213-.12.3588-.2875.7475-3.3313 3.6575-5.6563 7.0787-5.6563" fill="#003b7e"/></svg>