<svg xmlns="http://www.w3.org/2000/svg" height="800" width="1200" version="1.0" viewBox="-85.03935 -42.948 737.0077 257.688"><g fill-rule="evenodd"><path d="M57.905 120.837l-12.653-33.8c-4.679-12.49-7.453-14.042-14.219-14.042l.001 47.842H0V0h41.613C77.149 0 88.59 14.393 88.59 34.508c0 20.797-10.918 31.373-25.134 33.8 4.164 1.213 9.19 6.763 12.13 13.005 3.99 8.15 14.215 30.508 18.204 39.524zm-26.87-95.342v24.608h8.841c10.576 0 14.215-5.026 14.215-13.168.001-8.677-4.676-11.44-14.392-11.44zm75.554 95.342V0h67.96v25.495h-36.926v20.281h30.16v24.608h-30.16v24.62h41.429v25.833zm197.646 0h-33.11l-6.239-35.024c-2.61-14.555-5.377-30.334-5.9-37.96h-.176c-.35 6.063-2.95 22.191-5.89 37.96l-6.416 35.024h-33.807L183.399 0h32.76l6.764 32.598c5.716 27.21 6.765 39 6.94 43.513h.165c.697-9.713 2.773-24.795 6.073-42.65L242.341 0h34.5l7.802 40.4c1.737 9.19 4.163 20.805 4.85 35.537h.177c.687-10.743 4.336-34.15 6.763-45.939L302.499 0h33.11zm40.05 0V0h67.958v25.495H375.32v20.281h30.168v24.608H375.32v24.62h41.436v25.833zm63.845 27.858c-1.582-1.543-3.453-2.169-5.663-2.169-1.716 0-3.383.584-4.556 1.552-3.328 2.622-4.952 10.248-4.952 13.754 0 3.794 1.87 5.376 5.21 5.376 1.295 0 2.374-.206 3.413-.708l1.419-6.58h-4.298v-4.76h11.35l-3.003 14.01c-3.299 1.748-6.712 2.416-10.133 2.416-6.756 0-10.343-3.997-10.343-10.01 0-6.622 3.003-12.924 6.753-16.047 3.424-2.837 6.25-3.71 10.055-3.71 3.506 0 6.413 1.128 8.5 3.328zm34.582-6.414c4.378 0 6.928 2.456 6.928 6.332 0 5.716-3.927 9.384-8.348 10.134.504.33.966.997 1.253 1.46 1.38 2.416 4.34 11.04 4.34 11.04h-6.877l-1.512-4.708c-1.787-5.292-2.622-6.752-3.577-7.205a1.514 1.514 0 00-.71-.174l-2.59 12.087h-5.879l6.177-28.966zm-7.588 12.5h1.8c2.497 0 3.619-.289 4.584-.997 1.122-.916 1.871-2.706 1.871-4 .001-2.005-1.295-2.837-3.71-2.837h-2.879zm54.945-2.457c0 7.297-3.71 15.223-9.592 18.02-1.91.903-4.121 1.366-6.548 1.366-7.162 0-9.918-4.326-9.918-10.37 0-8.225 3.966-14.106 7.718-16.82 1.708-1.244 4.081-2.62 8.503-2.62 6.385 0 9.837 3.968 9.837 10.424m-15.924-3.372c-2.292 3-3.834 9.374-3.834 13.26 0 3.7 1.584 5.037 4.502 5.037 1.667 0 3.371-.534 4.709-2.16 2.508-3.092 4.01-9.971 4.01-13.968 0-2.838-1.174-4.719-4.34-4.719-1.963 0-3.884 1.008-5.047 2.55zm41.242-6.67l-4.05 19.057c-.37 1.656-.41 2.868-.247 3.452.382 1.295 1.623 2.006 3.547 2.006 2.663 0 4.46-1.46 5.119-3.505.215-.587.3-.916.636-2.458l3.959-18.553h5.92l-4.173 19.511c-.79 3.71-1.459 5.674-3.71 7.379-1.122.834-3.29 2.62-8.717 2.62-5.623 0-8.87-2.497-8.87-6.25 0-.955.123-2.086.328-3.084l4.295-20.176zm41.118 0c3.916 0 6.087.41 7.505 1.323 1.84 1.132 2.92 3.055 2.92 5.295 0 5.005-2.375 8.686-6.714 10.681-1.457.668-3.916.997-6.208.997h-3.084l-2.25 10.669h-5.963l6.168-28.966zm-4.542 13.547h2.919c2.25 0 3.505-.503 4.255-1.42.873-1.038 1.5-2.712 1.5-4.378 0-1.924-1.037-3.042-3.216-3.042h-3.578z" fill="#707073"/><path fill="#cc081f" d="M440.582 70.458h50.35v50.347h-50.35z"/><path fill="#fcc200" d="M516.076 70.458h50.35v50.347h-50.35z"/></g></svg>